<svg width="185" height="185" viewBox="0 0 185 185" fill="none" xmlns="http://www.w3.org/2000/svg">
<mask id="mask0_705_259" style="mask-type:alpha" maskUnits="userSpaceOnUse" x="0" y="0" width="185" height="185">
<rect width="185" height="185" fill="#D9D9D9"/>
</mask>
<g mask="url(#mask0_705_259)">
<path d="M92.5006 154.166C86.334 149.284 79.6534 145.494 72.459 142.797C65.2645 140.099 57.8131 138.75 50.1048 138.75C44.709 138.75 39.4095 139.456 34.2064 140.869C29.0033 142.283 24.025 144.274 19.2715 146.843C16.5736 148.257 13.972 148.192 11.4668 146.651C8.96159 145.109 7.70898 142.861 7.70898 139.906V47.0205C7.70898 45.6073 8.06228 44.2584 8.76888 42.9736C9.47548 41.6889 10.5354 40.7254 11.9486 40.083C17.8583 36.9997 24.025 34.6872 30.4486 33.1455C36.8722 31.6038 43.4243 30.833 50.1048 30.833C57.5562 30.833 64.847 31.7965 71.9772 33.7236C79.1074 35.6507 85.9486 38.5413 92.5006 42.3955V135.666C99.0527 131.555 105.926 128.472 113.12 126.416C120.315 124.361 127.574 123.333 134.896 123.333C139.521 123.333 144.05 123.718 148.482 124.489C152.915 125.26 157.379 126.416 161.876 127.958V35.458C163.803 36.1004 165.698 36.7748 167.561 37.4814C169.423 38.188 171.254 39.0552 173.053 40.083C174.466 40.7254 175.526 41.6889 176.232 42.9736C176.939 44.2584 177.292 45.6073 177.292 47.0205V139.906C177.292 142.861 176.04 145.109 173.535 146.651C171.029 148.192 168.428 148.257 165.73 146.843C160.976 144.274 155.998 142.283 150.795 140.869C145.592 139.456 140.292 138.75 134.896 138.75C127.188 138.75 119.737 140.099 112.542 142.797C105.348 145.494 98.6673 149.284 92.5006 154.166ZM77.084 128.151V51.8382C72.8444 50.0396 68.4442 48.6585 63.8835 47.695C59.3227 46.7314 54.7298 46.2497 50.1048 46.2497C45.3513 46.2497 40.7263 46.6993 36.2298 47.5986C31.7333 48.4979 27.3652 49.8469 23.1257 51.6455V128.151C27.6222 126.481 32.0866 125.26 36.5189 124.489C40.9512 123.718 45.4798 123.333 50.1048 123.333C54.7298 123.333 59.2585 123.718 63.6908 124.489C68.123 125.26 72.5875 126.481 77.084 128.151Z" fill="#E9AE62"/>
<path d="M107.918 42.3962V115.625L146.46 80.9378V3.85449L107.918 42.3962Z" fill="#E9AE62"/>
</g>
</svg>
