<svg width="250" height="250" viewBox="0 0 250 250" fill="none" xmlns="http://www.w3.org/2000/svg">
<path d="M247.33 150.864C247.33 150.491 247.32 150.118 247.32 149.755V112.989C247.32 107.298 242.797 103.618 235.801 103.618H227.421C212.673 103.608 185.395 103.589 176.437 103.589C165.408 103.589 161.905 109.879 159.932 116.041C159.265 118.111 155.409 131.662 154.006 136.676C173.434 132.299 189.791 128.698 191.646 128.365C195.737 127.629 200.526 126.873 205.608 127.011C226.145 127.648 240.658 140.434 242.846 159.676C247.438 158.155 247.389 154.612 247.33 150.864V150.864Z" fill="#F5FF00"/>
<path d="M88.5791 189.808H203.922C210.192 189.808 230.66 188.003 230.66 164.709C230.66 149.647 220.917 140.001 205.237 139.521H204.246C200.988 139.511 197.75 139.982 193.884 140.679C189.488 141.493 97.0373 162.069 84.2519 165.916C81.1709 166.838 77.2656 168.683 75.2051 172.215H185.18C184.297 169.85 183.817 167.368 183.817 164.777C183.817 153.003 193.393 143.426 205.158 143.426C216.923 143.426 226.51 153.003 226.51 164.777C226.51 176.552 217.296 185.717 205.845 186.08C205.806 186.08 205.757 186.08 205.708 186.08C205.521 186.08 205.345 186.109 205.158 186.109H76.618C79.0515 188.562 83.0549 189.808 88.5693 189.808H88.5791ZM168.186 168.712C162.887 168.712 158.57 164.395 158.57 159.096C158.57 153.797 162.887 149.49 168.186 149.49C173.484 149.49 177.802 153.797 177.802 159.096C177.802 164.395 173.484 168.712 168.186 168.712V168.712Z" fill="#B5B5B5"/>
<path d="M72.084 97.4561V103.235L79.9926 94.689C81.4252 93.1485 83.839 93.0504 85.3894 94.4732C86.1743 95.1993 86.6159 96.2001 86.6159 97.2893C86.6159 98.2509 86.2528 99.1732 85.6052 99.8699L72.0938 114.48V157.899C74.5861 156.241 77.4415 154.897 80.6402 153.935C89.8834 151.149 137.11 140.483 152.181 137.088C153.319 132.996 157.647 117.748 158.363 115.53C160.394 109.201 164.28 101.93 176.447 101.93C185.199 101.93 211.476 101.94 226.42 101.95C224.978 94.7675 216.245 51.1522 215.755 48.8267C215.342 46.7956 214.42 46.6582 212.958 46.6582H155.929C153.947 46.6582 153.094 47.6394 153.094 49.9355V52.2904H208.866C209.259 52.2904 209.73 52.5652 209.808 52.9576L216.579 86.3486C216.628 86.594 216.569 86.8491 216.412 87.0355C216.255 87.2317 216.019 87.3397 215.774 87.3397H83.0541C72.6138 87.3397 72.084 95.7586 72.084 97.4463V97.4561ZM127.552 94.012C127.641 93.5606 128.073 93.2663 128.524 93.3546C128.975 93.4429 129.27 93.8746 129.181 94.326L125.443 113.313C125.364 113.705 125.021 113.98 124.628 113.98C124.579 113.98 124.521 113.98 124.471 113.96C124.02 113.872 123.726 113.44 123.814 112.989L127.552 94.0022V94.012ZM118.574 94.012C118.663 93.5606 119.104 93.2663 119.546 93.3546C119.997 93.4429 120.291 93.8746 120.203 94.326L116.455 113.313C116.376 113.705 116.033 113.98 115.64 113.98C115.591 113.98 115.533 113.98 115.483 113.96C115.032 113.872 114.738 113.44 114.826 112.989L118.574 94.0022V94.012ZM109.586 94.012C109.675 93.5606 110.106 93.2663 110.558 93.3546C111.009 93.4429 111.303 93.8746 111.215 94.326L107.477 113.313C107.398 113.705 107.055 113.98 106.662 113.98C106.613 113.98 106.554 113.98 106.505 113.96C106.054 113.872 105.76 113.44 105.848 112.989L109.586 94.0022V94.012Z" fill="#F5FF00"/>
<path d="M212.969 179.163C212.969 180.801 212.488 182.214 211.605 183.333C219.288 180.645 224.832 173.354 224.832 164.768C224.832 153.906 216.001 145.075 205.138 145.075C194.276 145.075 185.455 153.906 185.455 164.768C185.455 167.369 185.965 169.861 186.927 172.206H204.893C210.025 172.206 212.969 174.747 212.969 179.173V179.163Z" fill="#B5B5B5"/>
<path d="M208.297 53.959H153.084V85.6917H214.734L208.297 53.959Z" fill="#0D74FF"/>
<path d="M211.31 179.163C211.31 175.689 209.092 173.854 204.893 173.854H50.0753C48.3287 177.838 46.3172 181.38 44.0898 184.442H204.893C208.847 184.442 211.31 182.421 211.31 179.163V179.163Z" fill="#F5FF00"/>
<path d="M176.142 159.087C176.142 154.701 172.57 151.139 168.184 151.139C163.798 151.139 160.227 154.701 160.227 159.087C160.227 163.473 163.798 167.044 168.184 167.044C172.57 167.044 176.142 163.473 176.142 159.087Z" fill="#B5B5B5"/>
<path d="M41.8033 184.766C44.4427 181.41 46.7879 177.357 48.7699 172.706C51.743 165.72 53.3424 158.773 54.1666 154.161C55.6189 145.939 55.766 139.266 54.6278 133.34L44.8254 143.937C44.1386 144.683 43.1966 145.114 42.1761 145.154C42.1271 145.154 42.0682 145.154 42.0191 145.154C41.0477 145.154 40.1352 144.8 39.4385 144.143C38.6535 143.417 38.212 142.416 38.212 141.327C38.212 140.355 38.575 139.433 39.2226 138.736L51.9883 124.94C51.4781 123.792 50.8796 122.605 50.1338 121.241C46.0814 113.872 40.7435 109.31 37.947 107.249L3.03516 200.23C12.6119 200.102 25.515 198.434 34.9445 191.507C37.427 189.691 39.7427 187.425 41.8131 184.766H41.8033Z" fill="#F5FF00"/>
<path d="M248.989 150.844C248.989 150.472 248.979 150.109 248.979 149.755V112.989C248.979 106.385 243.68 101.95 235.801 101.95H228.099C226.882 95.896 217.864 50.8579 217.364 48.4932C216.736 45.4219 214.862 45 212.939 45H155.91C154.232 45 151.416 45.6378 151.416 49.9355V85.6913H116.17V54.9103C116.17 53.5563 114.944 52.4475 113.443 52.4475H105.76C104.258 52.4475 103.032 53.5563 103.032 54.9103V85.6913H83.0444C73.7228 85.6913 70.4161 92.03 70.4161 97.4561V105.041L53.2055 123.635C52.7443 122.644 52.2144 121.614 51.5864 120.456C46.8864 111.919 40.5281 106.994 38.0161 105.276C37.8101 105.129 37.5452 105.1 37.2999 105.169C37.0545 105.247 36.8681 105.433 36.77 105.669L1.0535 200.779C0.955373 201.034 0.994622 201.319 1.15162 201.544C1.30861 201.77 1.56373 201.897 1.82866 201.897C11.7586 201.897 25.7214 200.327 35.9163 192.841C38.4184 191.006 40.7439 188.729 42.8438 186.1H62.4682C65.7847 196.393 75.2437 202.3 88.5687 202.3H203.911C227.382 202.3 243.15 187.189 243.15 164.699C243.15 163.571 243.092 162.452 243.003 161.353C249.097 159.538 249.048 154.74 248.989 150.844V150.844ZM3.03556 200.229L37.9475 107.249C40.7538 109.309 46.0818 113.882 50.1342 121.241C50.88 122.615 51.4785 123.802 51.9887 124.94L39.223 138.736C38.5656 139.433 38.2124 140.355 38.2124 141.327C38.2124 142.416 38.6441 143.417 39.4389 144.143C40.1454 144.8 41.0579 145.153 42.0195 145.153C42.0686 145.153 42.1275 145.153 42.1765 145.153C43.197 145.114 44.139 144.682 44.8258 143.937L54.6282 133.339C55.7665 139.276 55.6193 145.938 54.1671 154.161C53.3526 158.763 51.7533 165.72 48.7703 172.706C46.7883 177.357 44.4432 181.419 41.8037 184.765C39.7333 187.424 37.4274 189.691 34.9351 191.506C25.5056 198.434 12.6025 200.102 3.02575 200.229H3.03556ZM153.084 53.9586H208.307L214.744 85.6913H153.084V53.9586ZM215.755 87.3496C216 87.3496 216.236 87.2416 216.393 87.0454C216.55 86.8491 216.608 86.6038 216.559 86.3585L209.789 52.9675C209.71 52.5848 209.239 52.3003 208.847 52.3003H153.074V49.9454C153.074 47.6493 153.918 46.6681 155.91 46.6681H212.939C214.401 46.6681 215.323 46.8153 215.735 48.8366C216.226 51.1621 224.968 94.7774 226.401 101.96C211.447 101.95 185.18 101.94 176.427 101.94C164.26 101.94 160.365 109.211 158.343 115.54C157.627 117.758 153.29 133.006 152.162 137.098C137.09 140.483 89.8737 151.158 80.6208 153.945C77.422 154.907 74.5667 156.251 72.0744 157.909V114.49L85.5858 99.8798C86.2432 99.1831 86.5965 98.2607 86.5965 97.2991C86.5965 96.21 86.1647 95.2091 85.3699 94.483C83.8294 93.0603 81.4058 93.1486 79.9732 94.6989L72.0646 103.245V97.466C72.0646 95.7783 72.5944 87.3594 83.0346 87.3594H215.745L215.755 87.3496ZM44.0899 184.451C46.3173 181.39 48.3288 177.848 50.0754 173.864H204.893C209.092 173.864 211.31 175.699 211.31 179.172C211.31 182.43 208.847 184.451 204.893 184.451H44.0899ZM70.4259 116.276V159.077C66.03 162.472 63.0962 166.995 61.8795 172.215H50.772C53.4998 165.484 55.0207 158.9 55.8057 154.465C57.3953 145.487 57.464 138.285 56.0216 131.848L70.4161 116.286L70.4259 116.276ZM205.138 186.11C205.324 186.11 205.501 186.09 205.687 186.08C205.736 186.08 205.776 186.08 205.825 186.08C217.285 185.717 226.489 176.307 226.489 164.778C226.489 153.248 216.913 143.426 205.138 143.426C193.363 143.426 183.796 153.003 183.796 164.778C183.796 167.358 184.267 169.851 185.16 172.215H75.1848C77.2454 168.683 81.1507 166.838 84.2317 165.916C97.017 162.079 189.478 141.493 193.864 140.679C197.73 139.973 200.978 139.511 204.225 139.511H205.216C220.896 140.002 230.64 149.657 230.64 164.719C230.64 188.013 210.172 189.819 203.902 189.819H88.5785C83.0641 189.819 79.0607 188.572 76.6272 186.119H205.138V186.11ZM186.926 172.206C185.965 169.861 185.455 167.368 185.455 164.768C185.455 153.906 194.286 145.075 205.138 145.075C215.99 145.075 224.831 153.906 224.831 164.768C224.831 173.354 219.297 180.654 211.604 183.333C212.477 182.214 212.968 180.811 212.968 179.163C212.968 174.737 210.024 172.196 204.893 172.196H186.926V172.206ZM242.846 159.675C240.658 140.424 226.146 127.639 205.609 127.011C200.536 126.873 195.738 127.629 191.646 128.365C189.792 128.698 173.425 132.299 154.006 136.676C155.41 131.662 159.266 118.111 159.933 116.04C161.905 109.888 165.408 103.589 176.437 103.589C185.396 103.589 212.674 103.599 227.421 103.618H235.801C242.797 103.618 247.321 107.298 247.321 112.989V149.755C247.321 150.118 247.321 150.491 247.33 150.864C247.389 154.612 247.429 158.155 242.846 159.675V159.675Z" fill="black"/>
<path d="M106.486 113.97C106.544 113.98 106.594 113.989 106.643 113.989C107.035 113.989 107.378 113.715 107.457 113.322L111.195 94.3356C111.284 93.8842 110.989 93.4525 110.538 93.3641C110.087 93.266 109.655 93.5702 109.567 94.0216L105.828 113.008C105.74 113.46 106.034 113.891 106.486 113.98V113.97Z" fill="black"/>
<path d="M115.464 113.97C115.523 113.98 115.572 113.99 115.621 113.99C116.014 113.99 116.357 113.715 116.435 113.322L120.184 94.3357C120.272 93.8843 119.978 93.4526 119.526 93.3643C119.075 93.276 118.643 93.5703 118.555 94.0217L114.807 113.008C114.718 113.46 115.013 113.891 115.464 113.98V113.97Z" fill="black"/>
<path d="M124.462 113.97C124.521 113.98 124.57 113.989 124.619 113.989C125.012 113.989 125.355 113.715 125.434 113.322L129.172 94.3356C129.26 93.8842 128.966 93.4525 128.515 93.3641C128.063 93.266 127.631 93.5702 127.543 94.0216L123.805 113.008C123.716 113.46 124.011 113.891 124.462 113.98V113.97Z" fill="black"/>
<path d="M168.184 149.48C162.886 149.48 158.568 153.788 158.568 159.087C158.568 164.385 162.886 168.703 168.184 168.703C173.483 168.703 177.8 164.385 177.8 159.087C177.8 153.788 173.483 149.48 168.184 149.48V149.48ZM160.227 159.087C160.227 154.701 163.798 151.139 168.184 151.139C172.57 151.139 176.142 154.701 176.142 159.087C176.142 163.473 172.57 167.044 168.184 167.044C163.798 167.044 160.227 163.473 160.227 159.087Z" fill="black"/>
</svg>
