<svg width="12" height="17" viewBox="0 0 12 17" fill="none" xmlns="http://www.w3.org/2000/svg">
<g clip-path="url(#clip0_1015_1447)">
<path d="M-4.78963e-05 8.48633C-4.79177e-05 8.73047 0.0976515 8.95508 0.283251 9.13086L8.01757 16.709C8.19336 16.875 8.4082 16.9629 8.66211 16.9629C9.16015 16.9629 9.55078 16.582 9.55078 16.0742C9.55078 15.8301 9.45312 15.6055 9.29687 15.4395L2.1875 8.48633L9.29687 1.53319C9.45312 1.36719 9.55078 1.15239 9.55078 0.89839C9.55078 0.39059 9.16015 0.00979039 8.66211 0.00979034C8.4082 0.00979032 8.19336 0.0976897 8.01757 0.27339L0.283252 7.8418C0.0976516 8.02734 -4.7875e-05 8.24219 -4.78963e-05 8.48633Z" fill="black"/>
</g>
<defs>
<clipPath id="clip0_1015_1447">
<rect width="11.6895" height="16.9629" fill="white" transform="translate(11.6895 16.9629) rotate(-180)"/>
</clipPath>
</defs>
</svg>
